<?xml version="1.0" encoding="UTF-8"?>
<svg id="Layer_2" data-name="Layer 2" fill={fill} xmlns="http://www.w3.org/2000/svg" viewBox="0 0 820.44 92.3">
  <g id="Layer_1-2" data-name="Layer 1">
    <g>
      <path d="M4.79,68.15c82.45-7.56,164.91-15.12,247.36-22.69,82.45-7.56,164.91-15.12,247.36-22.69,46.36-4.25,92.72-8.5,139.08-12.76,6.36-.58,6.42-10.59,0-10-82.45,7.56-164.91,15.12-247.36,22.69-82.45,7.56-164.91,15.12-247.36,22.69-46.36,4.25-92.72,8.5-139.08,12.76-6.36,.58-6.42,10.59,0,10h0Z"/>
      <path d="M132.81,92.27c88.42-8.4,176.97-15.48,265.6-21.2,88.97-5.74,178.02-10.13,267.12-13.15,50.01-1.7,100.04-2.96,150.08-3.81,6.43-.11,6.45-10.11,0-10-88.81,1.5-177.59,4.34-266.31,8.53-89.05,4.21-178.04,9.77-266.92,16.7-49.89,3.89-99.75,8.2-149.57,12.94-6.35,.6-6.41,10.61,0,10h0Z"/>
    </g>
  </g>
</svg>