<?xml version="1.0" encoding="UTF-8"?>
<svg id="Layer_2"  data-name="Layer 2" xmlns="http://www.w3.org/2000/svg" viewBox="0 0 811.98 800.51">
  <defs>
      <style>
        .cls-3 {
          fill: #0bbb7a;
        }
      </style>
    </defs>
  <g id="Layer_1-2"  data-name="Layer 1">
    <path class="cls-3" d="M130.65,797.28c-20.32-8.67-29.76-32.18-21.08-52.49,26-60.89,40.87-127.41,43.56-192.85-31.87-24.41-63.3-56.78-90.39-93.6C43.28,431.88-1.8,364.17,.06,307.09c1.06-32.63,17.5-58.1,45.1-69.88,35.04-14.97,73.41-5.28,105.28,26.58,20.43,20.43,38.57,50.37,52.45,86.58,13.69,35.71,23.28,77.65,27.74,121.28,1.26,12.33,2.12,24.76,2.59,37.26,20.4,10.78,44.78,18.33,60.94,5.63,19.93-15.66,35.89-55.66,44.12-107.71-10.02-10.43-18.69-19.95-25.62-27.78-38.5-43.49-72.48-89.63-98.29-133.44-29.76-50.53-46.78-94.7-50.6-131.28-2.95-28.22,1.92-52.34,14.47-71.67,9.84-15.15,29.41-34.57,66.78-41.07,31.09-5.4,61.08,3.05,86.76,24.44,20.05,16.7,37.42,41.34,51.62,73.22,29.67,66.6,44.72,162.59,40.27,256.77-.32,6.7-.77,13.98-1.4,21.7,59.9,56.81,104.08,78.43,120.66,77.81,10.23-.37,16.85-3.64,22.83-11.3,15.45-19.76,22.7-64.17,19.87-121.83-2.43-49.6-11.3-92.22-11.39-92.62-4.32-20.4,7.76-40.7,27.76-46.63,20-5.93,41.19,4.5,48.7,23.96,19.57,50.75,50.37,84.38,91.55,99.93,31.65,11.96,58.61,8.84,58.88,8.81l-.37,.05,11.23,79.21c-4.42,.63-44.58,5.63-93.26-11.49-16.1-5.66-34.26-14.19-52.59-27.03-1.23,60.75-13.74,106.69-37.31,136.87-20.52,26.27-49.22,40.8-83.01,42.03-1.1,.04-2.19,.06-3.3,.06-43.16,0-92.69-29.96-136.1-65.3-11.77,41.86-31.12,82.3-62.83,107.22-20.79,16.34-46.2,24.52-73.45,23.71-12.84-.39-26.15-2.74-39.8-7.02-.81,7.83-1.78,15.67-2.89,23.5-7.74,54.5-22.64,107.85-44.29,158.55-6.49,15.2-21.27,24.31-36.81,24.3-5.24,0-10.56-1.04-15.69-3.22Zm-46.48-464.96c5.1,16.1,14.37,35.06,26.81,54.84,9.67,15.38,20.72,30.47,32.6,44.67-12.16-57-33.01-94.78-49.71-111.47-1.6-1.6-8.55-8.31-13.87-9.66,.03,4.14,.89,11.25,4.18,21.63ZM258.71,80.41c-3.25,.57-11.08,2.26-13.38,5.81-.82,1.27-3.4,6.44-2.01,19.8,4.51,43.19,43.57,114.65,100.27,185.6-3.11-60.64-14.91-118.57-33.28-159.82-8.81-19.79-26.37-51.71-47.86-51.71-1.23,0-2.48,.1-3.74,.32Z"/>
  </g>
</svg>