<?xml version="1.0" encoding="UTF-8"?>
<svg id="Layer_2" data-name="Layer 2"  xmlns="http://www.w3.org/2000/svg" viewBox="0 0 675.03 597.06">
  <defs>
    <style>
      .cls-1 {
        fill: #f4ff6c;
      }
    </style>
  </defs>
  <g id="Layer_1-2" data-name="Layer 1">
    <path class="cls-1" d="M75.06,597.06c-6.82,0-13.75-.94-20.63-2.9-39.83-11.36-62.9-52.9-51.53-92.73,1.13-3.97,28.37-98.47,82.56-204.74,32.49-63.71,68.14-118.83,105.97-163.82C241.92,72.81,296.99,30.06,355.13,5.79c27.35-11.42,58.87-5.66,80.41,14.7,21.54,20.36,29.07,51.5,19.21,79.45-.16,.46-18.64,53.52-32.47,123.59-1.31,6.63-2.53,13.18-3.67,19.65,49.98-49.97,99.57-87.29,148.07-111.36,24.38-12.1,53.41-10.05,75.84,5.38,22.43,15.42,34.74,41.79,32.17,68.89-3.9,41.25-11.63,162.35-.73,226.31,6.96,40.83-20.5,79.58-61.33,86.54-40.84,6.96-79.58-20.5-86.54-61.33-5.14-30.17-7.26-66.24-7.7-101.96-13.49,13.81-27.12,28.83-40.8,44.97-43.59,51.46-71.86,95.96-72.14,96.4-16.11,25.59-46.01,38.98-75.84,33.98-29.83-5-53.72-27.45-60.62-56.9-12.21-52.15-15-113.16-8.4-182.2-13.79,21.56-27.27,45.15-40.38,70.7-48.01,93.57-72.85,179.19-73.1,180.05-9.4,32.95-39.42,54.41-72.06,54.41Z"/>
  </g>
</svg>