<?xml version="1.0" encoding="UTF-8"?>
<svg id="Layer_2" data-name="Layer 2" xmlns="http://www.w3.org/2000/svg" viewBox="0 0 811.98 800.51">
  <g id="Layer_1-2" data-name="Layer 1">
    <path d="M665.63,800.51c-15.54,0-30.32-9.11-36.81-24.3-21.65-50.7-36.55-104.05-44.29-158.55-1.11-7.84-2.08-15.67-2.89-23.5-13.66,4.28-26.97,6.63-39.8,7.02-27.25,.81-52.65-7.38-73.45-23.71-31.71-24.92-51.07-65.36-62.83-107.22-43.41,35.34-92.94,65.3-136.1,65.3-1.11,0-2.2-.02-3.3-.06-33.79-1.22-62.49-15.75-83.01-42.03-23.57-30.19-36.08-76.13-37.31-136.87-18.33,12.84-36.49,21.37-52.59,27.03-48.68,17.12-88.84,12.12-93.26,11.49l11.23-79.21-.37-.05c.27,.03,27.23,3.15,58.88-8.81,41.17-15.55,71.97-49.17,91.55-99.93,7.5-19.46,28.7-29.89,48.7-23.96,20,5.93,32.08,26.23,27.76,46.63-.08,.4-8.96,43.02-11.39,92.62-2.83,57.66,4.41,102.07,19.87,121.83,5.99,7.65,12.6,10.93,22.83,11.3,16.58,.62,60.76-21.01,120.66-77.81-.63-7.72-1.09-15-1.4-21.7-4.45-94.18,10.6-190.17,40.27-256.77,14.2-31.88,31.57-56.52,51.62-73.22,25.67-21.39,55.67-29.84,86.76-24.44,37.38,6.5,56.95,25.92,66.78,41.07,12.55,19.33,17.42,43.45,14.47,71.67-3.82,36.59-20.85,80.76-50.6,131.28-25.8,43.81-59.79,89.95-98.29,133.44-6.93,7.83-15.61,17.35-25.62,27.78,8.24,52.05,24.2,92.05,44.12,107.71,16.16,12.7,40.54,5.15,60.94-5.63,.46-12.5,1.33-24.93,2.59-37.26,4.45-43.63,14.05-85.57,27.74-121.28,13.88-36.21,32.02-66.15,52.45-86.58,31.86-31.86,70.23-41.55,105.28-26.58,27.6,11.78,44.03,37.25,45.1,69.88,1.86,57.08-43.22,124.79-62.69,151.25-27.09,36.82-58.52,69.2-90.39,93.6,2.69,65.44,17.56,131.95,43.56,192.85,8.67,20.32-.77,43.82-21.08,52.49-5.12,2.19-10.45,3.22-15.69,3.22Zm66.35-489.8c-5.32,1.35-12.27,8.06-13.87,9.66-16.7,16.7-37.55,54.47-49.71,111.47,11.88-14.2,22.93-29.29,32.6-44.67,12.43-19.78,21.7-38.74,26.81-54.84,3.29-10.37,4.15-17.49,4.18-21.62Zm-182.46-230.62c-21.49,0-39.05,31.93-47.86,51.71-18.37,41.25-30.17,99.18-33.28,159.82,56.69-70.94,95.75-142.41,100.27-185.6,1.4-13.35-1.18-18.53-2.01-19.8-2.3-3.55-10.12-5.25-13.38-5.81-1.26-.22-2.51-.32-3.74-.32Z"/>
  </g>
</svg>