<?xml version="1.0" encoding="UTF-8"?>
<svg id="Layer_2"  data-name="Layer 2" xmlns="http://www.w3.org/2000/svg" viewBox="0 0 316.32 368.12">
  <defs>
    <style>
      .cls-2 {
        fill: #a935ea;
      }
    </style>
  </defs>
  <g id="Layer_1-2" data-name="Layer 1">
    <path class="cls-2" d="M97.59,22.65c-8.01,2.16-16.02,4.69-23.19,8.86-14.32,8.32-24.62,23.24-27.32,39.58-2.42,14.67,1.02,29.6,2.09,44.43s-.89,31.26-11.59,41.59c-7.49,7.22-18.24,10.4-25.47,17.88-6.54,6.77-9.41,16.28-10.88,25.59-3.24,20.54-.3,42.78,11.95,59.58,20.48,28.07,60.06,33.93,86.84,56.08,10.11,8.37,18.21,18.92,28.06,27.59,11.7,10.3,25.84,17.82,40.92,21.77,17.34,4.53,37.62,3.66,50.83-8.46,12.93-11.86,15.71-30.99,16.53-48.52s.78-36.16,10.15-51c10.16-16.09,29.1-24.07,43.04-37.03,18.45-17.15,27.46-43.07,26.73-68.24-.73-25.17-10.52-49.53-24.85-70.24-5.54-8.01-11.83-15.61-19.5-21.62-12.5-9.79-28.52-15.28-38.58-27.56-4.33-5.29-7.31-11.59-11.73-16.81C211.31,3.94,194.26-.78,178.33,.1c-15.92,.88-31.12,6.61-46.03,12.27l-34.71,10.28Z"/>
  </g>
</svg>