<?xml version="1.0" encoding="UTF-8"?>
<svg id="Layer_2" fill={fill} data-name="Layer 2" xmlns="http://www.w3.org/2000/svg" viewBox="0 0 142 134.98">
  <g id="Layer_2-2" data-name="Layer 2">
    <path d="M130.64,112.98h-44.52c-1.15,0-1.86-1.25-1.27-2.24l.02-.03c.27-.45,.75-.73,1.28-.73h20.49c6.06,0,11.25-4.74,11.36-10.79s-4.85-11.21-11-11.21h-13.54c-.84,0-1.51-.7-1.48-1.53h0c.03-.82,.69-1.47,1.51-1.47h13.15c6.06,0,11.25-4.74,11.36-10.79s-4.85-11.21-11-11.21h-19.19c-.56,0-1.06-.32-1.31-.81l-.02-.03c-.51-.99,.21-2.16,1.31-2.16h18.84c6.06,0,11.25-4.74,11.36-10.79s-4.85-11.21-11-11.21h-38.98l15.84-12.01c7.55-5.73,9.03-16.5,3.3-24.06h0c-1.61-2.13-4.64-2.54-6.77-.93,0,0-56.16,41.58-58.38,43C11,50.98,0,65.69,0,84.98c0,26.34,20.37,47.91,46.22,49.84,.58,.09,1.17,.16,1.78,.16h83c6.14,0,11.11-5.04,11-11.21s-5.31-10.79-11.36-10.79Z"/>
  </g>
</svg>